<svg width="800" height="800" viewBox="0 0 800 800" fill="none" xmlns="http://www.w3.org/2000/svg">
<path d="M400 39C255.632 39 125 157.119 125 339.822C125 456.488 209.228 593.713 377.314 751.807C383.665 757.657 391.775 760.875 400.165 760.875C408.555 760.875 416.665 757.657 423.016 751.807C590.772 593.713 675 456.488 675 339.822C675 157.119 544.368 39 400 39ZM400 405.859C362.176 405.859 331.24 372.841 331.24 332.47C331.24 292.099 362.176 259.08 400 259.08C437.824 259.08 468.76 292.099 468.76 332.47C468.76 372.841 437.824 405.859 400 405.859Z" fill="#FFA011"/>
</svg>
