<svg width="800" height="800" viewBox="0 0 800 800" fill="none" xmlns="http://www.w3.org/2000/svg">
<path d="M266.667 467C257.222 467 249.3 463.8 242.9 457.4C236.522 451.022 233.333 443.111 233.333 433.667C233.333 424.222 236.522 416.3 242.9 409.9C249.3 403.522 257.222 400.333 266.667 400.333C276.111 400.333 284.033 403.522 290.433 409.9C296.811 416.3 300 424.222 300 433.667C300 443.111 296.811 451.022 290.433 457.4C284.033 463.8 276.111 467 266.667 467ZM400 467C390.556 467 382.644 463.8 376.267 457.4C369.867 451.022 366.667 443.111 366.667 433.667C366.667 424.222 369.867 416.3 376.267 409.9C382.644 403.522 390.556 400.333 400 400.333C409.444 400.333 417.367 403.522 423.767 409.9C430.144 416.3 433.333 424.222 433.333 433.667C433.333 443.111 430.144 451.022 423.767 457.4C417.367 463.8 409.444 467 400 467ZM533.333 467C523.889 467 515.978 463.8 509.6 457.4C503.2 451.022 500 443.111 500 433.667C500 424.222 503.2 416.3 509.6 409.9C515.978 403.522 523.889 400.333 533.333 400.333C542.778 400.333 550.689 403.522 557.067 409.9C563.467 416.3 566.667 424.222 566.667 433.667C566.667 443.111 563.467 451.022 557.067 457.4C550.689 463.8 542.778 467 533.333 467ZM166.667 733.667C148.333 733.667 132.633 727.144 119.567 714.1C106.522 701.033 100 685.333 100 667V200.333C100 182 106.522 166.311 119.567 153.267C132.633 140.2 148.333 133.667 166.667 133.667H200V67H266.667V133.667H533.333V67H600V133.667H633.333C651.667 133.667 667.367 140.2 680.433 153.267C693.478 166.311 700 182 700 200.333V667C700 685.333 693.478 701.033 680.433 714.1C667.367 727.144 651.667 733.667 633.333 733.667H166.667ZM166.667 667H633.333V333.667H166.667V667ZM166.667 267H633.333V200.333H166.667V267Z" fill="#FFA011"/>
</svg>
