<svg width="800" height="800" viewBox="0 0 800 800" fill="none" xmlns="http://www.w3.org/2000/svg">
<path d="M641.202 532.538L556.352 520.72C546.381 519.296 536.275 520.644 526.792 524.661C517.31 528.679 508.698 535.262 501.603 543.916L440.12 618.777C345.319 560.025 268.262 466.139 220.041 350.634L281.804 275.333C296.193 257.851 303.207 233.435 300.842 208.579L291.183 106.029C289.285 86.1738 281.46 67.8624 269.199 54.5805C256.938 41.2986 241.096 33.9737 224.69 34.0001H166.935C129.179 34.0001 97.7967 72.2852 100.121 118.237C117.837 465.783 345.932 743.301 630.861 764.886C668.576 767.718 699.999 729.482 699.999 683.481V613.112C700.082 593.21 694.124 573.973 683.27 559.1C672.417 544.226 657.434 534.766 641.202 532.538V532.538Z" fill="#FFA011"/>
</svg>
